<?xml version="1.0" encoding="utf-8"?>
<svg viewBox="151.164 82.4369 125.37 72.7673" xmlns="http://www.w3.org/2000/svg">
  <path d="M 276.534 153.276 C 271.974 154.436 269.154 153.326 266.624 149.526 C 260.944 141.016 254.674 132.896 248.624 124.626 C 247.844 123.556 247.034 122.506 246.024 121.176 C 238.864 130.836 231.714 140.036 225.004 149.606 C 222.604 153.026 220.084 154.516 215.604 153.306 L 242.524 117.176 L 217.464 84.546 C 221.774 83.706 224.754 84.136 227.394 87.996 C 233.224 96.516 239.654 104.626 246.064 113.206 C 252.514 104.656 258.864 96.536 264.864 88.096 C 267.274 84.676 269.864 83.376 274.194 84.636 C 270.914 88.986 267.704 93.266 264.474 97.516 C 260.114 103.246 255.834 109.046 251.314 114.656 C 249.704 116.656 249.964 117.956 251.404 119.846 C 259.764 130.836 268.024 141.936 276.534 153.276 Z M 151.194 116.576 C 151.914 112.966 152.394 109.286 153.394 105.746 C 159.394 84.316 183.994 75.406 200.894 88.686 C 210.794 96.476 213.254 107.456 212.764 119.836 L 156.964 119.836 C 156.124 142.046 172.114 155.456 192.494 148.616 C 199.644 146.216 203.854 140.616 205.964 133.616 C 207.034 130.106 208.804 129.556 212.104 130.556 C 210.414 139.316 206.584 146.636 198.584 151.216 C 186.584 158.076 169.454 155.856 160.444 146.326 C 155.124 140.726 152.864 133.756 151.864 126.226 C 151.714 125.026 151.404 123.846 151.164 122.656 C 151.184 120.629 151.194 118.602 151.194 116.576 Z M 157.064 115.086 L 207.494 115.086 C 207.164 99.026 197.164 87.616 183.494 87.516 C 168.494 87.396 157.714 98.536 157.064 115.086 Z" style="paint-order: fill; fill-rule: nonzero; fill: rgb(255, 255, 255);" transform="matrix(1.0000000000000002, 0, 0, 1.0000000000000002, 0, -3.552713678800501e-15)"/>
</svg>